<?xml version="1.0" standalone="no"?><!DOCTYPE svg PUBLIC "-//W3C//DTD SVG 1.1//EN" "http://www.w3.org/Graphics/SVG/1.1/DTD/svg11.dtd"><svg height="1200" node-id="1" sillyvg="true" template-height="1200" template-width="1600" version="1.1" viewBox="0 0 1600 1200" width="1600" xmlns="http://www.w3.org/2000/svg" xmlns:xlink="http://www.w3.org/1999/xlink"><defs node-id="241"></defs><g node-id="755"><g node-id="756"><g node-id="772"><path d="M 371.10 327.54 L 371.10 489.73 C 371.10 501.03 361.94 510.19 350.64 510.19 L 68.02 510.19 C 56.72 510.19 47.56 501.03 47.56 489.73 L 47.56 327.54 C 47.56 316.24 56.72 307.08 68.02 307.08 L 350.64 307.08 C 361.94 307.08 371.10 316.24 371.10 327.54 Z" fill="#a2b6db" fill-opacity="0.79" fill-rule="nonzero" group-id="1,2,18" node-id="250" stroke="none" target-height="203.11002" target-width="323.54" target-x="47.56" target-y="307.08"></path></g><path d="M 90.69 378.98 L 142.82 378.98 L 142.82 429.31 L 90.69 429.31 Z" fill="#e6bd54" fill-rule="nonzero" group-id="1,2" node-id="253" stroke="none" target-height="50.329987" target-width="52.130005" target-x="90.69" target-y="378.98"></path><path d="M 116.40 307.08 L 47.56 398.60 L 47.56 327.54 C 47.56 316.24 56.72 307.08 68.02 307.08 L 116.40 307.08 L 116.40 307.08 Z" fill="#7995c6" fill-opacity="0.25" fill-rule="nonzero" group-id="1,2,19" node-id="257" stroke="none" target-height="91.52002" target-width="68.84" target-x="47.56" target-y="307.08"></path><path d="M 260.52 308.48 L 154.85 510.23 L 104.66 510.19 L 205.06 307.08 Z" fill="#7995c6" fill-opacity="0.25" fill-rule="nonzero" group-id="1,2,20" node-id="262" stroke="none" target-height="203.15002" target-width="155.85999" target-x="104.66" target-y="307.08"></path><path d="M 270.51 352.40 L 91.78 352.40 C 88.20 352.40 85.30 349.50 85.30 345.92 L 85.30 345.92 C 85.30 342.34 88.20 339.44 91.78 339.44 L 270.51 339.44 C 274.09 339.44 276.99 342.34 276.99 345.92 L 276.99 345.92 C 276.99 349.50 274.09 352.40 270.51 352.40 Z" fill="#ffffff" fill-rule="nonzero" group-id="1,2" node-id="265" stroke="none" target-height="12.959991" target-width="191.68999" target-x="85.3" target-y="339.44"></path><path d="M 297.40 483.24 L 101.48 483.24 C 97.51 483.24 94.29 480.02 94.29 476.05 L 94.29 476.05 C 94.29 472.08 97.51 468.86 101.48 468.86 L 297.40 468.86 C 301.37 468.86 304.59 472.08 304.59 476.05 L 304.59 476.05 C 304.59 480.02 301.37 483.24 297.40 483.24 Z" fill="#ffffff" fill-rule="nonzero" group-id="1,2" node-id="267" stroke="none" target-height="14.380005" target-width="210.29999" target-x="94.29" target-y="468.86"></path></g><path d="M 1457.95 1027.27 L 257.28 1027.27 L 257.28 191.99 C 257.28 161.92 281.66 137.55 311.72 137.55 L 1404.09 137.55 C 1433.84 137.55 1457.95 161.67 1457.95 191.41 L 1457.95 1027.27 Z" fill="#ced7f6" fill-rule="nonzero" group-id="1" id="background_2" node-id="13" stroke="none" target-height="889.72003" target-width="1200.6699" target-x="257.28" target-y="137.55"></path><path d="M 1391.10 1027.27 L 305.45 1027.27 L 305.45 222.97 C 305.45 209.70 316.21 198.94 329.48 198.94 L 1363.89 198.94 C 1378.92 198.94 1391.10 211.12 1391.10 226.15 L 1391.10 1027.27 Z" fill="#edf1fc" fill-rule="nonzero" group-id="1" id="background" node-id="14" stroke="none" target-height="828.33" target-width="1085.6499" target-x="305.45" target-y="198.94"></path><path d="M 1281.44 821.15 L 936.43 821.15 C 924.99 821.15 915.71 811.87 915.71 800.43 L 915.71 317.02 C 915.71 305.58 924.99 296.30 936.43 296.30 L 1281.44 296.30 C 1292.88 296.30 1302.16 305.58 1302.16 317.02 L 1302.16 800.43 C 1302.16 811.87 1292.88 821.15 1281.44 821.15 Z" fill="#ffffff" fill-rule="nonzero" group-id="1,3" node-id="273" stroke="#000000" stroke-linecap="butt" stroke-width="1" target-height="524.85004" target-width="386.45" target-x="915.71" target-y="296.3"></path><path d="M 971.95 327.74 L 1256.89 327.74 L 1256.89 598.74 L 971.95 598.74 Z" fill="#e9e4fb" fill-rule="nonzero" group-id="1,3" node-id="275" stroke="none" target-height="271" target-width="284.94" target-x="971.95" target-y="327.74"></path><path d="M 1205.79 346.32 L 1266.18 346.32 L 1266.18 416.01 L 1205.79 416.01 Z" fill="#ffffff" fill-rule="nonzero" group-id="1,3" node-id="277" stroke="#000000" stroke-linecap="butt" stroke-width="1" target-height="69.69" target-width="60.390015" target-x="1205.79" target-y="346.32"></path><path d="M 965.76 626.61 L 1221.27 626.61 L 1221.27 632.80 L 965.76 632.80 Z" fill="#ffffff" fill-rule="nonzero" group-id="1,3" node-id="279" stroke="#000000" stroke-linecap="butt" stroke-width="1" target-height="6.1900024" target-width="255.51001" target-x="965.76" target-y="626.61"></path><path d="M 965.76 644.02 L 1151.32 644.02 L 1151.32 652.48 L 965.76 652.48 Z" fill="#7a71dc" fill-rule="nonzero" group-id="1,3" node-id="281" stroke="none" target-height="8.459961" target-width="185.55994" target-x="965.76" target-y="644.02"></path><path d="M 965.76 672.67 L 1211.22 672.67 L 1211.22 681.79 L 965.76 681.79 Z" fill="#ffffff" fill-rule="nonzero" group-id="1,3" node-id="283" stroke="#000000" stroke-linecap="butt" stroke-width="1" target-height="9.119995" target-width="245.45996" target-x="965.76" target-y="672.67"></path><path d="M 965.76 690.90 L 1151.97 690.90 L 1151.97 698.71 L 965.76 698.71 Z" fill="#ffc876" fill-rule="nonzero" group-id="1,3" node-id="285" stroke="none" target-height="7.8099976" target-width="186.20996" target-x="965.76" target-y="690.9"></path><path d="M 965.76 722.43 L 1198.04 722.43 L 1198.04 728.62 L 965.76 728.62 Z" fill="#ffffff" fill-rule="nonzero" group-id="1,3" node-id="287" stroke="#000000" stroke-linecap="butt" stroke-width="1" target-height="6.1900024" target-width="232.28003" target-x="965.76" target-y="722.43"></path><path d="M 965.76 738.69 L 1134.55 738.69 L 1134.55 745.66 L 965.76 745.66 Z" fill="#05cdcd" fill-rule="nonzero" group-id="1,3" node-id="289" stroke="#050505" stroke-linecap="butt" stroke-width="1" target-height="6.9699707" target-width="168.79004" target-x="965.76" target-y="738.69"></path><path d="M 1221.09 371.66 L 1218.68 374.41 L 1232.80 386.46 L 1255.86 364.08 L 1252.77 362.36 L 1233.49 380.61 Z" fill="#ac6dfc" fill-rule="nonzero" group-id="1,3" node-id="291" stroke="none" target-height="24.100006" target-width="37.17993" target-x="1218.68" target-y="362.36"></path><path d="M 1078.09 401.13 L 1140.56 401.13 L 1168.96 552.90 L 1140.56 555.35 L 1112.16 454.98 L 1089.44 552.90 L 1058.21 552.90 C 1058.21 552.91 1078.96 398.45 1078.09 401.13 Z" fill="#6781d5" fill-rule="nonzero" group-id="1,3,21" node-id="295" stroke="none" target-height="156.89996" target-width="110.75" target-x="1058.21" target-y="398.45"></path><path d="M 1141.72 407.65 L 1077.44 407.55 L 1078.09 401.13 L 1140.47 401.13 Z" fill="#19377c" fill-rule="nonzero" group-id="1,3,21" node-id="297" stroke="none" target-height="6.519989" target-width="64.28003" target-x="1077.44" target-y="401.13"></path><path d="M 363.19 678.08 L 587.73 678.08 L 587.73 972.53 L 363.19 972.53 Z" fill="#ffffff" fill-rule="nonzero" group-id="1,4" node-id="302" stroke="#000000" stroke-linecap="butt" stroke-width="1" target-height="294.45" target-width="224.53998" target-x="363.19" target-y="678.08"></path><path d="M 402.03 714.94 L 440.24 714.94 L 440.24 745.24 L 402.03 745.24 Z" fill="#84cfa6" fill-rule="nonzero" group-id="1,4,22" node-id="305" stroke="none" target-height="30.299988" target-width="38.20999" target-x="402.03" target-y="714.94"></path><path d="M 404.20 767.74 L 442.41 767.74 L 442.41 798.04 L 404.20 798.04 Z" fill="#191954" fill-rule="nonzero" group-id="1,4,22" node-id="307" stroke="none" target-height="30.299988" target-width="38.20999" target-x="404.2" target-y="767.74"></path><path d="M 404.20 816.35 L 442.41 816.35 L 442.41 846.65 L 404.20 846.65 Z" fill="#ffc035" fill-rule="nonzero" group-id="1,4,22" node-id="309" stroke="none" target-height="30.300049" target-width="38.20999" target-x="404.2" target-y="816.35"></path><path d="M 395.53 761.16 L 433.74 761.16 L 433.74 791.46 L 395.53 791.46 Z" fill="none" group-id="1,4,22" node-id="311" stroke="#050505" stroke-linecap="butt" stroke-width="1" target-height="30.300049" target-width="38.20999" target-x="395.53" target-y="761.16"></path><path d="M 395.53 812.06 L 433.74 812.06 L 433.74 842.36 L 395.53 842.36 Z" fill="none" group-id="1,4,22" node-id="313" stroke="#050505" stroke-linecap="butt" stroke-width="1" target-height="30.299988" target-width="38.20999" target-x="395.53" target-y="812.06"></path><path d="M 447.73 726.39 L 531.31 726.39" fill="none" group-id="1,4,22" node-id="315" stroke="#050505" stroke-linecap="butt" stroke-width="1" target-height="0" target-width="83.57999" target-x="447.73" target-y="726.39"></path><path d="M 448.68 780.13 L 530.36 780.50" fill="none" group-id="1,4,22" node-id="317" stroke="#050505" stroke-linecap="butt" stroke-width="1" target-height="0.36999512" target-width="81.67999" target-x="448.68" target-y="780.13"></path><path d="M 448.99 829.11 L 530.04 829.78" fill="none" group-id="1,4,22" node-id="319" stroke="#050505" stroke-linecap="butt" stroke-width="1" target-height="0.67004395" target-width="81.04999" target-x="448.99" target-y="829.11"></path><path d="M 402.10 872.67 L 557.31 872.67" fill="none" group-id="1,4,22" node-id="321" stroke="#050505" stroke-linecap="butt" stroke-width="1" target-height="0" target-width="155.20999" target-x="402.1" target-y="872.67"></path><path d="M 400.90 910.55 L 558.51 910.55" fill="none" group-id="1,4,22" node-id="323" stroke="#050505" stroke-linecap="butt" stroke-width="1" target-height="0" target-width="157.61002" target-x="400.9" target-y="910.55"></path><path d="M 395.53 709.78 L 433.74 709.78 L 433.74 740.08 L 395.53 740.08 Z" fill="none" group-id="1,4,22" node-id="325" stroke="#050505" stroke-linecap="butt" stroke-width="1" target-height="30.299988" target-width="38.20999" target-x="395.53" target-y="709.78"></path><path d="M 867.29 544.56 L 503.01 544.56 C 501.09 544.56 499.52 543.00 499.52 541.07 L 499.52 291.51 C 499.52 289.59 501.08 288.02 503.01 288.02 L 867.29 288.02 C 869.21 288.02 870.78 289.58 870.78 291.51 L 870.78 541.08 C 870.78 543.00 869.22 544.56 867.29 544.56 Z" fill="#ffffff" fill-rule="nonzero" group-id="1,5" node-id="330" stroke="#000000" stroke-linecap="butt" stroke-width="1" target-height="256.54" target-width="371.26004" target-x="499.52" target-y="288.02"></path><path d="M 839.45 332.66 L 742.79 332.66 C 739.68 332.66 737.15 330.14 737.15 327.02 L 737.15 326.12 C 737.15 323.01 739.67 320.48 742.79 320.48 L 839.45 320.48 C 842.56 320.48 845.09 323.00 845.09 326.12 L 845.09 327.02 C 845.09 330.14 842.56 332.66 839.45 332.66 Z" fill="#b1adf7" fill-rule="nonzero" group-id="1,5" node-id="332" stroke="none" target-height="12.179993" target-width="107.94" target-x="737.15" target-y="320.48"></path><path d="M 725.99 326.42 C 725.99 330.05 722.81 332.99 718.88 332.99 C 714.95 332.99 711.77 330.05 711.77 326.42 C 711.77 322.79 714.95 319.85 718.88 319.85 C 722.81 319.85 725.99 322.79 725.99 326.42 Z" fill="#dbd7fa" fill-rule="nonzero" group-id="1,5" node-id="334" stroke="none" target-height="13.139984" target-width="14.219971" target-x="711.77" target-y="319.85"></path><path d="M 839.86 362.95 L 743.20 362.95 C 740.09 362.95 737.56 360.43 737.56 357.31 L 737.56 356.41 C 737.56 353.30 740.08 350.77 743.20 350.77 L 839.86 350.77 C 842.97 350.77 845.50 353.29 845.50 356.41 L 845.50 357.31 C 845.50 360.42 842.98 362.95 839.86 362.95 Z" fill="#b1adf7" fill-rule="nonzero" group-id="1,5" node-id="336" stroke="none" target-height="12.180023" target-width="107.94" target-x="737.56" target-y="350.77"></path><path d="M 726.40 356.70 C 726.40 360.33 723.22 363.27 719.29 363.27 C 715.36 363.27 712.18 360.33 712.18 356.70 C 712.18 353.07 715.36 350.13 719.29 350.13 C 723.22 350.13 726.40 353.07 726.40 356.70 Z" fill="#dbd7fa" fill-rule="nonzero" group-id="1,5" node-id="338" stroke="none" target-height="13.139984" target-width="14.220032" target-x="712.18" target-y="350.13"></path><path d="M 840.50 394.67 L 743.84 394.67 C 740.73 394.67 738.20 392.15 738.20 389.03 L 738.20 388.13 C 738.20 385.02 740.72 382.49 743.84 382.49 L 840.50 382.49 C 843.61 382.49 846.14 385.01 846.14 388.13 L 846.14 389.03 C 846.14 392.14 843.61 394.67 840.50 394.67 Z" fill="#b1adf7" fill-rule="nonzero" group-id="1,5" node-id="340" stroke="none" target-height="12.180023" target-width="107.94" target-x="738.2" target-y="382.49"></path><path d="M 727.04 388.42 C 727.04 392.05 723.86 394.99 719.93 394.99 C 716.00 394.99 712.82 392.05 712.82 388.42 C 712.82 384.79 716.00 381.85 719.93 381.85 C 723.86 381.85 727.04 384.79 727.04 388.42 Z" fill="#dbd7fa" fill-rule="nonzero" group-id="1,5" node-id="342" stroke="none" target-height="13.139984" target-width="14.219971" target-x="712.82" target-y="381.85"></path><path d="M 461.23 270.10 L 597.42 270.10 L 597.42 328.33 L 461.23 328.33 Z" fill="#e9e4fb" fill-rule="nonzero" group-id="1,5" node-id="344" stroke="none" target-height="58.22998" target-width="136.18997" target-x="461.23" target-y="270.1"></path><path d="M 515.51 298.72 L 651.70 298.72 L 651.70 352.01 L 515.51 352.01 Z" fill="#afb7e0" fill-opacity="0.78" fill-rule="nonzero" group-id="1,5,23" node-id="348" stroke="none" target-height="53.29001" target-width="136.19" target-x="515.51" target-y="298.72"></path><path d="M 515.50 352.02 L 677.35 352.02 L 677.35 409.26 L 515.50 409.26 Z" fill="#c1d3ff" fill-rule="nonzero" group-id="1,5" node-id="351" stroke="none" target-height="57.24002" target-width="161.84998" target-x="515.5" target-y="352.02"></path><path d="M 522.62 453.59 L 597.45 453.59 L 597.45 528.42 L 522.62 528.42 Z" fill="#dbd7fa" fill-rule="nonzero" group-id="1,5" node-id="353" stroke="none" target-height="74.82999" target-width="74.83002" target-x="522.62" target-y="453.59"></path><path d="M 641.33 454.15 L 716.16 454.15 L 716.16 528.98 L 641.33 528.98 Z" fill="#dbd7fa" fill-rule="nonzero" group-id="1,5" node-id="355" stroke="none" target-height="74.82999" target-width="74.829956" target-x="641.33" target-y="454.15"></path><path d="M 766.37 460.71 L 841.20 460.71 L 841.20 535.54 L 766.37 535.54 Z" fill="#dbd7fa" fill-rule="nonzero" group-id="1,5" node-id="357" stroke="none" target-height="74.82999" target-width="74.83002" target-x="766.37" target-y="460.71"></path><path d="M 543.20 472.67 C 543.20 473.50 543.20 474.17 543.20 474.17 C 543.20 474.17 543.20 473.50 543.20 472.67 C 543.20 471.84 543.20 471.17 543.20 471.17 C 543.20 471.17 543.20 471.85 543.20 472.67 Z" fill="#edf1fc" fill-rule="nonzero" group-id="1,5" node-id="359" stroke="none" target-height="3" target-width="0" target-x="543.2" target-y="471.17"></path><path d="M 580.24 491.01 C 580.24 502.17 571.20 511.21 560.04 511.21 C 548.88 511.21 539.84 502.17 539.84 491.01 C 539.84 479.85 548.88 470.81 560.04 470.81 C 571.20 470.81 580.24 479.85 580.24 491.01 Z" fill="#b1adf7" fill-rule="nonzero" group-id="1,5" node-id="361" stroke="none" target-height="40.399994" target-width="40.399963" target-x="539.84" target-y="470.81"></path><path d="M 698.95 496.74 C 698.95 507.90 689.91 516.94 678.75 516.94 C 667.59 516.94 658.55 507.90 658.55 496.74 C 658.55 485.58 667.59 476.54 678.75 476.54 C 689.91 476.54 698.95 485.58 698.95 496.74 Z" fill="#b1adf7" fill-rule="nonzero" group-id="1,5" node-id="363" stroke="none" target-height="40.399994" target-width="40.400024" target-x="658.55" target-y="476.54"></path><path d="M 823.98 498.12 C 823.98 509.28 814.94 518.32 803.78 518.32 C 792.62 518.32 783.58 509.28 783.58 498.12 C 783.58 486.96 792.62 477.92 803.78 477.92 C 814.94 477.92 823.98 486.96 823.98 498.12 Z" fill="#b1adf7" fill-rule="nonzero" group-id="1,5" node-id="365" stroke="none" target-height="40.399994" target-width="40.399963" target-x="783.58" target-y="477.92"></path><path d="M 1320.58 264.25 L 971.75 264.25 C 968.44 264.25 965.76 261.57 965.76 258.26 L 965.76 229.99 C 965.76 226.68 968.44 224.00 971.75 224.00 L 1320.58 224.00 C 1323.89 224.00 1326.57 226.68 1326.57 229.99 L 1326.57 258.26 C 1326.57 261.57 1323.89 264.25 1320.58 264.25 Z" fill="#b1bcfc" fill-rule="nonzero" group-id="1,6" node-id="369" stroke="none" target-height="40.25" target-width="360.80994" target-x="965.76" target-y="224"></path><path d="M 1258.44 233.28 L 1315.74 233.28 L 1315.74 250.31 L 1258.44 250.31 Z" fill="#eddd7d" fill-rule="nonzero" group-id="1,6" node-id="371" stroke="none" target-height="17.029999" target-width="57.30005" target-x="1258.44" target-y="233.28"></path><path d="M 318.20 120.55 L 257.64 120.55 C 254.48 120.55 251.92 117.99 251.92 114.83 L 251.92 55.80 C 251.92 52.64 254.48 50.08 257.64 50.08 L 318.20 50.08 C 321.36 50.08 323.92 52.64 323.92 55.80 L 323.92 114.83 C 323.92 117.99 321.36 120.55 318.20 120.55 Z" fill="#ffffff" fill-rule="nonzero" group-id="1" id="box_2" node-id="64" stroke="#000000" stroke-linecap="butt" stroke-width="1" target-height="70.47" target-width="72.000015" target-x="251.92" target-y="50.08"></path><path d="M 1201.98 703.85 L 1370.77 703.85 L 1370.77 964.01 L 1201.98 964.01 Z" fill="#acccf3" fill-opacity="0.5" fill-rule="nonzero" group-id="1,7,24" node-id="378" stroke="none" target-height="260.16003" target-width="168.79004" target-x="1201.98" target-y="703.85"></path><path d="M 1401.22 933.81 L 1254.37 933.81 C 1252.37 933.81 1250.75 932.19 1250.75 930.19 L 1250.75 733.02 C 1250.75 731.02 1252.37 729.40 1254.37 729.40 L 1401.22 729.40 C 1403.22 729.40 1404.84 731.02 1404.84 733.02 L 1404.84 930.19 C 1404.84 932.19 1403.22 933.81 1401.22 933.81 Z" fill="#ffffff" fill-rule="nonzero" group-id="1,7" node-id="381" stroke="none" target-height="204.40997" target-width="154.08997" target-x="1250.75" target-y="729.4"></path><path d="M 1279.40 795.99 L 1339.02 795.99 L 1339.02 862.58 L 1279.40 862.58 Z" fill="none" group-id="1,7" node-id="383" stroke="#000000" stroke-linecap="butt" stroke-width="1" target-height="66.59003" target-width="59.619995" target-x="1279.4" target-y="795.99"></path><path d="M 1301.08 768.11 L 1353.73 768.11 L 1353.73 775.85 L 1301.08 775.85 Z" fill="#8e79a0" fill-rule="nonzero" group-id="1,7" node-id="385" stroke="none" target-height="7.73999" target-width="52.650024" target-x="1301.08" target-y="768.11"></path><path d="M 1363.03 810.70 L 1387.81 810.70 L 1387.81 840.12 L 1363.03 840.12 Z" fill="#764392" fill-rule="nonzero" group-id="1,7" node-id="387" stroke="none" target-height="29.419983" target-width="24.78003" target-x="1363.03" target-y="810.7"></path><path d="M 1284.05 887.35 L 1380.84 887.35 L 1380.84 893.54 L 1284.05 893.54 Z" fill="#7a71dc" fill-rule="nonzero" group-id="1,7" node-id="389" stroke="none" target-height="6.1900024" target-width="96.78992" target-x="1284.05" target-y="887.35"></path><path d="M 1288.70 903.61 L 1356.84 903.61 L 1356.84 906.71 L 1288.70 906.71 Z" fill="#7a71dc" fill-rule="nonzero" group-id="1,7" node-id="391" stroke="none" target-height="3.1000366" target-width="68.140015" target-x="1288.7" target-y="903.61"></path><path d="M 1300.31 824.27 L 1362.68 824.27 L 1362.68 827.73 L 1300.31 827.73 Z" fill="#7a71dc" fill-rule="nonzero" group-id="1,7" node-id="393" stroke="none" target-height="3.459961" target-width="62.369995" target-x="1300.31" target-y="824.27"></path><path d="M 348.45 162.46 C 348.45 170.34 342.40 176.72 334.94 176.72 C 327.48 176.72 321.43 170.34 321.43 162.46 C 321.43 154.58 327.48 148.20 334.94 148.20 C 342.40 148.20 348.45 154.58 348.45 162.46 Z" fill="#7c7ce5" fill-rule="nonzero" group-id="1,8" node-id="397" stroke="none" target-height="28.520004" target-width="27.02002" target-x="321.43" target-y="148.2"></path><path d="M 394.98 162.46 C 394.98 170.34 388.93 176.72 381.47 176.72 C 374.01 176.72 367.96 170.34 367.96 162.46 C 367.96 154.58 374.01 148.20 381.47 148.20 C 388.93 148.20 394.98 154.58 394.98 162.46 Z" fill="#7c7ce5" fill-rule="nonzero" group-id="1,8" node-id="399" stroke="none" target-height="28.520004" target-width="27.02002" target-x="367.96" target-y="148.2"></path><path d="M 441.51 162.46 C 441.51 170.34 435.46 176.72 428.00 176.72 C 420.54 176.72 414.49 170.34 414.49 162.46 C 414.49 154.58 420.54 148.20 428.00 148.20 C 435.46 148.20 441.51 154.58 441.51 162.46 Z" fill="#7c7ce5" fill-rule="nonzero" group-id="1,8" node-id="401" stroke="none" target-height="28.520004" target-width="27.02002" target-x="414.49" target-y="148.2"></path><path d="M 367.50 290.37 L 441.75 290.37 L 441.75 649.87 L 367.50 649.87 Z" fill="#ffffff" fill-rule="nonzero" group-id="1,9" node-id="405" stroke="none" target-height="359.5" target-width="74.25" target-x="367.5" target-y="290.37"></path><path d="M 384.33 307.46 L 419.87 307.46 L 419.87 345.73 L 384.33 345.73 Z" fill="#fbda66" fill-rule="nonzero" group-id="1,9" node-id="407" stroke="none" target-height="38.27002" target-width="35.54001" target-x="384.33" target-y="307.46"></path><path d="M 386.38 366.24 L 419.87 366.24 L 419.87 401.78 L 386.38 401.78 Z" fill="#a06cea" fill-rule="nonzero" group-id="1,9" node-id="409" stroke="none" target-height="35.54001" target-width="33.48999" target-x="386.38" target-y="366.24"></path><path d="M 383.65 424.33 L 419.87 424.33 L 419.87 458.50 L 383.65 458.50 Z" fill="#ffe8ff" fill-rule="nonzero" group-id="1,9" node-id="411" stroke="none" target-height="34.170013" target-width="36.22" target-x="383.65" target-y="424.33"></path><path d="M 385.70 481.06 L 419.87 481.06 L 419.87 513.18 L 385.70 513.18 Z" fill="#acccf3" fill-rule="nonzero" group-id="1,9" node-id="413" stroke="none" target-height="32.119995" target-width="34.169983" target-x="385.7" target-y="481.06"></path><path d="M 385.70 537.10 L 419.87 537.10 L 419.87 573.32 L 385.70 573.32 Z" fill="#764392" fill-rule="nonzero" group-id="1,9" node-id="415" stroke="none" target-height="36.22003" target-width="34.169983" target-x="385.7" target-y="537.1"></path><path d="M 385.02 592.46 L 419.88 592.46 L 419.88 628.68 L 385.02 628.68 Z" fill="#fef1f8" fill-rule="nonzero" group-id="1,9" node-id="417" stroke="none" target-height="36.21997" target-width="34.860016" target-x="385.02" target-y="592.46"></path><path d="M 270.34 73.45 L 303.03 73.45 L 303.03 104.98 L 270.34 104.98 Z" fill="#bfd1ff" fill-rule="nonzero" group-id="1,10" node-id="421" stroke="none" target-height="31.530006" target-width="32.690002" target-x="270.34" target-y="73.45"></path><path d="M 286.12 72.74 L 288.92 72.74 L 288.92 104.87 L 286.12 104.87 Z" fill="#2555b7" fill-rule="nonzero" group-id="1,10" node-id="423" stroke="none" target-height="32.130005" target-width="2.8000183" target-x="286.12" target-y="72.74"></path><path d="M 286.12 72.74 C 286.12 72.74 272.42 71.36 278.33 65.83 C 284.25 60.30 288.30 71.36 288.30 71.36 C 288.30 71.36 292.97 60.99 297.02 64.80 C 301.07 68.60 296.71 74.13 286.12 72.74 Z" fill="none" group-id="1,10" node-id="425" stroke="#161693" stroke-linecap="butt" stroke-width="1" target-height="13.829998" target-width="28.649994" target-x="272.42" target-y="60.3"></path><path d="M 208.04 1138.30 C 208.04 1138.30 105.17 1137.20 105.03 1137.20 C 104.57 1137.21 103.25 1137.07 102.46 1136.59 C 96.09 1132.74 103.47 1114.75 104.10 1109.18 C 106.66 1086.60 87.41 1061.05 102.92 1040.18 C 106.60 1035.22 112.53 1031.83 118.58 1032.22 C 132.96 1033.15 135.08 1049.62 138.45 1060.92 C 140.96 1069.36 149.68 1087.76 160.53 1085.59 C 173.38 1083.02 171.11 1059.35 171.66 1049.81 C 172.66 1032.34 180.52 1014.44 193.57 1002.74 C 221.14 978.02 249.40 1005.48 270.80 1024.25 C 296.03 1046.39 323.76 1068.61 357.75 1072.68 C 392.03 1076.78 394.98 1138.08 394.98 1138.08 L 208.04 1138.30 Z" fill="#ffffff" fill-rule="nonzero" group-id="1,11" node-id="429" stroke="#000000" stroke-linecap="butt" stroke-width="1" target-height="160.28003" target-width="307.57" target-x="87.41" target-y="978.02"></path><path d="M 144.93 1136.88 C 144.93 1136.88 107.60 1067.06 113.88 1044.16" fill="none" group-id="1,11" node-id="431" stroke="#000000" stroke-linecap="butt" stroke-width="1" target-height="92.71997" target-width="37.329994" target-x="107.6" target-y="1044.16"></path><path d="M 121.62 1083.73 L 130.83 1050.82" fill="none" group-id="1,11" node-id="433" stroke="#000000" stroke-linecap="butt" stroke-width="1" target-height="32.910034" target-width="9.209999" target-x="121.62" target-y="1050.82"></path><path d="M 125.72 1096.64 C 125.72 1096.64 104.77 1091.85 101.85 1086.65" fill="none" group-id="1,11" node-id="435" stroke="#000000" stroke-linecap="butt" stroke-width="1" target-height="9.98999" target-width="23.870003" target-x="101.85" target-y="1086.65"></path><path d="M 128.23 1102.69 C 128.23 1102.69 104.77 1097.89 103.52 1094.00" fill="none" group-id="1,11" node-id="437" stroke="#000000" stroke-linecap="butt" stroke-width="1" target-height="8.689941" target-width="24.71" target-x="103.52" target-y="1094"></path><path d="M 157.59 1085.02 C 157.59 1085.02 185.20 1117.93 183.49 1136.09" fill="none" group-id="1,11" node-id="439" stroke="#000000" stroke-linecap="butt" stroke-width="1" target-height="51.069946" target-width="27.61" target-x="157.59" target-y="1085.02"></path><path d="M 195.65 1135.68 C 199.97 1103.98 205.10 1071.85 213.95 1041.13 C 217.74 1027.97 226.72 1007.29 239.05 999.99" fill="none" group-id="1,11" node-id="441" stroke="#000000" stroke-linecap="butt" stroke-width="1" target-height="135.69006" target-width="43.40001" target-x="195.65" target-y="999.99"></path><path d="M 214.26 1037.56 C 214.26 1037.56 195.44 1015.48 199.23 1001.65" fill="none" group-id="1,11" node-id="443" stroke="#000000" stroke-linecap="butt" stroke-width="1" target-height="35.910034" target-width="18.819992" target-x="195.44" target-y="1001.65"></path><path d="M 211.72 1050.53 C 211.72 1050.53 236.04 1046.25 254.92 1031.58" fill="none" group-id="1,11" node-id="445" stroke="#000000" stroke-linecap="butt" stroke-width="1" target-height="18.950073" target-width="43.199997" target-x="211.72" target-y="1031.58"></path><path d="M 210.45 1057.44 C 210.45 1057.44 241.47 1051.44 249.87 1042.38" fill="none" group-id="1,11" node-id="447" stroke="#000000" stroke-linecap="butt" stroke-width="1" target-height="15.059937" target-width="39.42" target-x="210.45" target-y="1042.38"></path><path d="M 204.54 1083.38 C 204.54 1083.38 174.81 1068.63 171.90 1054.79" fill="none" group-id="1,11" node-id="449" stroke="#000000" stroke-linecap="butt" stroke-width="1" target-height="28.589966" target-width="32.64" target-x="171.9" target-y="1054.79"></path><path d="M 202.43 1090.72 C 202.43 1090.72 180.23 1081.60 174.80 1069.92" fill="none" group-id="1,11" node-id="451" stroke="#000000" stroke-linecap="butt" stroke-width="1" target-height="20.799927" target-width="27.62999" target-x="174.8" target-y="1069.92"></path><path d="M 286.35 1135.70 C 286.35 1135.70 289.99 1089.79 307.81 1065.08" fill="none" group-id="1,11" node-id="453" stroke="#000000" stroke-linecap="butt" stroke-width="1" target-height="70.619995" target-width="21.459991" target-x="286.35" target-y="1065.08"></path><path d="M 293.48 1101.90 C 293.48 1101.90 311.23 1094.81 342.72 1071.19" fill="none" group-id="1,11" node-id="455" stroke="#000000" stroke-linecap="butt" stroke-width="1" target-height="30.710083" target-width="49.23999" target-x="293.48" target-y="1071.19"></path><path d="M 290.04 1112.53 C 290.04 1112.53 316.95 1107.81 355.88 1074.14" fill="none" group-id="1,11" node-id="457" stroke="#000000" stroke-linecap="butt" stroke-width="1" target-height="38.390015" target-width="65.84" target-x="290.04" target-y="1074.14"></path><path d="M 286.04 1126.70 C 286.04 1126.70 261.99 1108.98 253.98 1082.40" fill="none" group-id="1,11" node-id="459" stroke="#000000" stroke-linecap="butt" stroke-width="1" target-height="44.299927" target-width="32.060013" target-x="253.98" target-y="1082.4"></path><path d="M 915.96 799.05 L 698.24 799.05 C 689.94 799.05 683.22 792.32 683.22 784.03 L 683.22 631.27 C 683.22 622.97 689.95 616.25 698.24 616.25 L 915.96 616.25 C 924.26 616.25 930.98 622.98 930.98 631.27 L 930.98 784.03 C 930.98 792.33 924.26 799.05 915.96 799.05 Z" fill="#ffffff" fill-rule="nonzero" group-id="1,12" node-id="463" stroke="#000000" stroke-linecap="butt" stroke-width="1" target-height="182.79999" target-width="247.76001" target-x="683.22" target-y="616.25"></path><path d="M 930.81 630.61 L 683.21 630.61 L 683.21 621.33 C 683.21 618.53 685.48 616.26 688.28 616.26 L 925.80 616.26 C 928.57 616.26 930.82 618.51 930.82 621.28 L 930.82 630.61 L 930.81 630.61 Z" fill="#ffffff" fill-rule="nonzero" group-id="1,12" node-id="465" stroke="#000000" stroke-linecap="butt" stroke-width="1" target-height="14.349976" target-width="247.60999" target-x="683.21" target-y="616.26"></path><path d="M 931.14 732.63 L 881.63 732.63 C 879.65 732.63 878.05 731.03 878.05 729.05 L 878.05 624.37 C 878.05 622.39 879.65 620.79 881.63 620.79 L 931.14 620.79 C 933.12 620.79 934.72 622.39 934.72 624.37 L 934.72 729.05 C 934.72 731.03 933.12 732.63 931.14 732.63 Z" fill="#e4eff9" fill-rule="nonzero" group-id="1,12" node-id="467" stroke="#000000" stroke-linecap="butt" stroke-width="1" target-height="111.84003" target-width="56.669983" target-x="878.05" target-y="620.79"></path><path d="M 702.63 750.08 L 835.81 750.08 L 835.81 756.27 L 702.63 756.27 Z" fill="#e3e6e8" fill-opacity="0.68" fill-rule="nonzero" group-id="1,12,25" node-id="471" stroke="none" target-height="6.1900024" target-width="133.18" target-x="702.63" target-y="750.08"></path><path d="M 703.41 767.11 L 811.81 767.11 L 811.81 771.76 L 703.41 771.76 Z" fill="#e3e6e8" fill-opacity="0.68" fill-rule="nonzero" group-id="1,12,26" node-id="476" stroke="none" target-height="4.6500244" target-width="108.400024" target-x="703.41" target-y="767.11"></path><path d="M 748.21 644.56 C 749.99 648.11 781.68 648.07 781.68 645.01 L 790.61 651.70 L 821.85 653.04 L 821.85 668.66 L 794.18 668.66 L 787.04 680.71 L 787.93 732.92 L 737.06 732.92 L 738.40 678.03 L 733.04 668.66 L 709.83 669.11 L 710.72 653.94 L 732.59 653.05 L 748.21 644.56 Z" fill="#3f65e2" fill-rule="nonzero" group-id="1,12" node-id="479" stroke="none" target-height="88.359985" target-width="112.01996" target-x="709.83" target-y="644.56"></path><path d="M 845.55 649.50 L 860.66 649.50 L 860.66 665.37 L 845.55 665.37 Z" fill="#ca1773" fill-rule="nonzero" group-id="1,12" node-id="481" stroke="none" target-height="15.869995" target-width="15.109985" target-x="845.55" target-y="649.5"></path><path d="M 845.55 675.95 L 859.15 675.95 L 859.15 685.02 L 845.55 685.02 Z" fill="#fed5f5" fill-rule="nonzero" group-id="1,12" node-id="483" stroke="none" target-height="9.070007" target-width="13.600037" target-x="845.55" target-y="675.95"></path><path d="M 845.55 697.87 L 860.66 697.87 L 860.66 711.47 L 845.55 711.47 Z" fill="#d199e2" fill-rule="nonzero" group-id="1,12" node-id="485" stroke="none" target-height="13.599976" target-width="15.109985" target-x="845.55" target-y="697.87"></path><path d="M 915.82 644.97 C 915.82 652.48 909.73 658.57 902.22 658.57 C 894.71 658.57 888.62 652.48 888.62 644.97 C 888.62 637.46 894.71 631.37 902.22 631.37 C 909.73 631.37 915.82 637.46 915.82 644.97 Z" fill="#3f65e2" fill-opacity="0.69" fill-rule="nonzero" group-id="1,12,27" node-id="489" stroke="none" target-height="27.200012" target-width="27.200012" target-x="888.62" target-y="631.37"></path><path d="M 914.35 681.79 C 914.35 688.49 908.98 693.93 902.35 693.93 C 895.72 693.93 890.35 688.49 890.35 681.79 C 890.35 675.09 895.72 669.65 902.35 669.65 C 908.98 669.65 914.35 675.09 914.35 681.79 Z" fill="#acccf3" fill-rule="nonzero" group-id="1,12" node-id="492" stroke="none" target-height="24.279968" target-width="24" target-x="890.35" target-y="669.65"></path><path d="M 853.07 730.35 L 892.34 730.35 L 892.34 742.78 L 853.07 742.78 Z" fill="#6160e2" fill-opacity="0.33" fill-rule="nonzero" group-id="1,12,28" node-id="496" stroke="none" target-height="12.430054" target-width="39.27002" target-x="853.07" target-y="730.35"></path><path d="M 1477.24 575.93 L 1487.23 575.93 L 1487.23 628.39 L 1477.24 628.39 Z" fill="#c1d7ef" fill-rule="nonzero" group-id="1,13" node-id="501" stroke="none" target-height="52.460022" target-width="9.98999" target-x="1477.24" target-y="575.93"></path><path d="M 1499.73 592.17 L 1510.97 592.17 L 1510.97 688.35 L 1499.73 688.35 Z" fill="#c1d7ef" fill-rule="nonzero" group-id="1,13" node-id="503" stroke="none" target-height="96.17999" target-width="11.23999" target-x="1499.73" target-y="592.17"></path><path d="M 305.90 339.22 C 307.88 343.11 310.70 347.56 315.28 347.77 C 320.30 348.00 323.60 343.03 325.55 338.68 C 327.50 334.33 330.11 329.21 335.09 328.61 C 340.44 327.96 344.42 332.96 347.12 337.35 C 349.82 341.74 353.70 346.78 359.06 346.26 C 363.19 345.86 366.03 342.23 367.87 338.74 C 369.71 335.25 371.29 331.33 374.76 329.19 C 378.23 327.05 384.24 328.34 384.56 332.22" fill="none" group-id="1,14" node-id="507" stroke="#000000" stroke-linecap="butt" stroke-opacity="0.82" stroke-width="1" target-height="20.950012" target-width="78.66" target-x="305.9" target-y="327.05"></path><path d="M 1465.78 777.27 C 1467.02 781.35 1468.31 785.52 1470.75 788.82 C 1473.19 792.11 1477.07 794.36 1480.73 793.34 C 1486.72 791.66 1488.63 783.11 1492.97 778.08 C 1497.79 772.49 1506.35 771.88 1511.74 776.75 C 1514.29 779.05 1516.07 782.29 1518.46 784.81 C 1520.85 787.33 1524.34 789.12 1527.32 787.65 C 1532.47 785.09 1533.11 774.58 1538.72 774.49" fill="none" group-id="1,14" node-id="509" stroke="#000000" stroke-linecap="butt" stroke-opacity="0.82" stroke-width="1" target-height="22.47998" target-width="72.93994" target-x="1465.78" target-y="771.88"></path><path d="M 1439.62 163.18 L 1415.93 142.70 L 1435.19 119.54 L 1458.88 140.01 Z" fill="#fe6666" fill-opacity="0.82" fill-rule="nonzero" group-id="1,14,29" node-id="512" stroke="none" target-height="43.63999" target-width="42.94995" target-x="1415.93" target-y="119.54"></path><path d="M 642.60 104.22 L 677.36 72.80 L 728.10 107.84" fill="none" group-id="1,14,29,36" node-id="516" stroke="#050505" stroke-linecap="butt" stroke-opacity="0.82" stroke-width="0.75" target-height="35.039993" target-width="85.5" target-x="642.6" target-y="72.8"></path><path d="M 645.73 104.22 C 645.73 106.19 644.33 107.79 642.60 107.79 C 640.87 107.79 639.47 106.19 639.47 104.22 C 639.47 102.25 640.87 100.65 642.60 100.65 C 644.33 100.65 645.73 102.25 645.73 104.22 Z" fill="#ffffff" fill-opacity="0.82" fill-rule="nonzero" group-id="1,14,29,36" node-id="518" stroke="#050505" stroke-linecap="butt" stroke-opacity="0.82" stroke-width="0.75" target-height="7.1399994" target-width="6.26001" target-x="639.47" target-y="100.65"></path><path d="M 682.17 72.80 C 682.17 75.74 680.02 78.12 677.36 78.12 C 674.70 78.12 672.55 75.74 672.55 72.80 C 672.55 69.86 674.70 67.48 677.36 67.48 C 680.02 67.48 682.17 69.86 682.17 72.80 Z" fill="#ffffff" fill-opacity="0.82" fill-rule="nonzero" group-id="1,14,29,36" node-id="520" stroke="#050505" stroke-linecap="butt" stroke-opacity="0.82" stroke-width="0.75" target-height="10.639999" target-width="9.619995" target-x="672.55" target-y="67.48"></path><path d="M 732.56 107.84 C 732.56 110.41 730.56 112.49 728.10 112.49 C 725.64 112.49 723.64 110.41 723.64 107.84 C 723.64 105.27 725.64 103.19 728.10 103.19 C 730.56 103.19 732.56 105.27 732.56 107.84 Z" fill="#ffffff" fill-opacity="0.82" fill-rule="nonzero" group-id="1,14,29,36" node-id="522" stroke="#050505" stroke-linecap="butt" stroke-opacity="0.82" stroke-width="0.75" target-height="9.299995" target-width="8.919983" target-x="723.64" target-y="103.19"></path><path d="M 1432.93 164.89 L 1409.24 144.41 L 1428.51 121.25 L 1452.20 141.72 Z" fill="none" group-id="1,14,29" node-id="525" stroke="#020202" stroke-linecap="butt" stroke-opacity="0.82" stroke-width="1" target-height="43.64" target-width="42.95996" target-x="1409.24" target-y="121.25"></path><path d="M 206.44 932.39 L 220.40 940.65 L 234.36 948.90 L 219.70 957.09 L 205.03 965.27 L 205.74 948.83 Z" fill="#05cdcd" fill-opacity="0.82" fill-rule="nonzero" group-id="1,14,29" node-id="527" stroke="none" target-height="32.880005" target-width="29.330002" target-x="205.03" target-y="932.39"></path><path d="M 1449.59 470.24 L 1450.64 484.20 L 1451.70 498.15 L 1439.21 491.94 L 1426.71 485.73 L 1438.15 477.98 Z" fill="#ffffff" fill-opacity="0.82" fill-rule="nonzero" group-id="1,14,29" node-id="529" stroke="#020202" stroke-linecap="butt" stroke-opacity="0.82" stroke-width="1" target-height="27.910004" target-width="24.98999" target-x="1426.71" target-y="470.24"></path><path d="M 433.40 111.82 C 433.40 116.94 429.40 121.09 424.46 121.09 C 419.52 121.09 415.52 116.94 415.52 111.82 C 415.52 106.70 419.52 102.55 424.46 102.55 C 429.40 102.55 433.40 106.70 433.40 111.82 Z" fill="#000033" fill-opacity="0.82" fill-rule="nonzero" group-id="1,14,29" node-id="531" stroke="none" target-height="18.539993" target-width="17.880005" target-x="415.52" target-y="102.55"></path><path d="M 878.02 80.01 C 878.02 83.25 875.44 85.88 872.26 85.88 C 869.08 85.88 866.50 83.25 866.50 80.01 C 866.50 76.77 869.08 74.14 872.26 74.14 C 875.44 74.14 878.02 76.77 878.02 80.01 Z" fill="#ffffff" fill-opacity="0.82" fill-rule="nonzero" group-id="1,14,29" node-id="533" stroke="#020202" stroke-linecap="butt" stroke-opacity="0.82" stroke-width="1" target-height="11.739998" target-width="11.52002" target-x="866.5" target-y="74.14"></path><path d="M 164.36 446.80 C 164.36 455.62 157.18 462.77 148.33 462.77 C 139.48 462.77 132.30 455.62 132.30 446.80 C 132.30 437.98 139.48 430.83 148.33 430.83 C 157.18 430.83 164.36 437.98 164.36 446.80 Z" fill="#ff6666" fill-opacity="0.82" fill-rule="nonzero" group-id="1,14,29" node-id="535" stroke="none" target-height="31.940002" target-width="32.059998" target-x="132.3" target-y="430.83"></path><path d="M 161.96 441.58 C 161.96 450.40 154.78 457.55 145.93 457.55 C 137.08 457.55 129.90 450.40 129.90 441.58 C 129.90 432.76 137.08 425.61 145.93 425.61 C 154.78 425.61 161.96 432.76 161.96 441.58 Z" fill="none" group-id="1,14,29" node-id="537" stroke="#020202" stroke-linecap="butt" stroke-opacity="0.82" stroke-width="1" target-height="31.940002" target-width="32.060013" target-x="129.9" target-y="425.61"></path><path d="M 202.14 938.35 L 216.10 946.60 L 230.06 954.86 L 215.40 963.04 L 200.74 971.22 L 201.44 954.79 Z" fill="none" group-id="1,14,29" node-id="539" stroke="#020202" stroke-linecap="butt" stroke-opacity="0.82" stroke-width="1" target-height="32.869995" target-width="29.319992" target-x="200.74" target-y="938.35"></path><path d="M 801.48 624.70 C 801.48 629.84 797.54 634.01 792.67 634.01 C 787.80 634.01 783.86 629.84 783.86 624.70 C 783.86 619.56 787.80 615.39 792.67 615.39 C 797.54 615.39 801.48 619.56 801.48 624.70 Z" fill="#ded8fa" fill-opacity="0.82" fill-rule="nonzero" group-id="1,14" node-id="542" stroke="none" target-height="18.619995" target-width="17.619995" target-x="783.86" target-y="615.39"></path><path d="M 201.32 464.74 C 201.32 467.31 199.35 469.40 196.91 469.40 C 194.47 469.40 192.50 467.31 192.50 464.74 C 192.50 462.17 194.47 460.08 196.91 460.08 C 199.35 460.08 201.32 462.17 201.32 464.74 Z" fill="none" group-id="1,14" node-id="544" stroke="#000000" stroke-linecap="butt" stroke-opacity="0.82" stroke-width="1" target-height="9.320007" target-width="8.820007" target-x="192.5" target-y="460.08"></path><path d="M 378.10 482.66 C 378.10 484.86 376.28 486.65 374.03 486.65 C 371.78 486.65 369.96 484.86 369.96 482.66 C 369.96 480.46 371.78 478.67 374.03 478.67 C 376.28 478.67 378.10 480.46 378.10 482.66 Z" fill="none" group-id="1,14" node-id="546" stroke="#000000" stroke-linecap="butt" stroke-opacity="0.82" stroke-width="1" target-height="7.9799805" target-width="8.140015" target-x="369.96" target-y="478.67"></path><path d="M 426.59 554.34 C 426.59 557.28 424.32 559.66 421.51 559.66 C 418.70 559.66 416.43 557.28 416.43 554.34 C 416.43 551.40 418.70 549.02 421.51 549.02 C 424.32 549.02 426.59 551.40 426.59 554.34 Z" fill="none" group-id="1,14" node-id="548" stroke="#000000" stroke-linecap="butt" stroke-opacity="0.82" stroke-width="1" target-height="10.639954" target-width="10.160004" target-x="416.43" target-y="549.02"></path><path d="M 439.83 384.37 C 439.83 387.31 437.56 389.69 434.75 389.69 C 431.94 389.69 429.67 387.31 429.67 384.37 C 429.67 381.43 431.94 379.05 434.75 379.05 C 437.56 379.05 439.83 381.43 439.83 384.37 Z" fill="none" group-id="1,14" node-id="550" stroke="#000000" stroke-linecap="butt" stroke-opacity="0.82" stroke-width="1" target-height="10.640015" target-width="10.159973" target-x="429.67" target-y="379.05"></path><path d="M 1022.47 702.68 C 1024.91 702.68 1026.88 704.61 1026.88 707.00 C 1026.88 709.39 1024.91 711.32 1022.47 711.32 C 1020.03 711.32 1018.06 709.39 1018.06 707.00 C 1018.06 704.61 1020.03 702.68 1022.47 702.68 Z" fill="none" group-id="1,14" node-id="552" stroke="#000000" stroke-linecap="butt" stroke-opacity="0.82" stroke-width="1" target-height="8.640015" target-width="8.820007" target-x="1018.06" target-y="702.68"></path><path d="M 1176.59 190.19 C 1176.59 193.13 1174.32 195.51 1171.51 195.51 C 1168.70 195.51 1166.43 193.13 1166.43 190.19 C 1166.43 187.25 1168.70 184.87 1171.51 184.87 C 1174.32 184.87 1176.59 187.25 1176.59 190.19 Z" fill="none" group-id="1,14" node-id="554" stroke="#000000" stroke-linecap="butt" stroke-opacity="0.82" stroke-width="1" target-height="10.639999" target-width="10.159912" target-x="1166.43" target-y="184.87"></path><path d="M 959.12 200.80 C 959.12 203.19 957.15 205.12 954.71 205.12 C 952.27 205.12 950.30 203.19 950.30 200.80 C 950.30 198.41 952.27 196.48 954.71 196.48 C 957.15 196.48 959.12 198.41 959.12 200.80 Z" fill="none" group-id="1,14" node-id="556" stroke="#000000" stroke-linecap="butt" stroke-opacity="0.82" stroke-width="1" target-height="8.639999" target-width="8.820007" target-x="950.3" target-y="196.48"></path><path d="M 1365.92 376.64 C 1365.92 379.58 1363.65 381.96 1360.84 381.96 C 1358.03 381.96 1355.76 379.58 1355.76 376.64 C 1355.76 373.70 1358.03 371.32 1360.84 371.32 C 1363.65 371.32 1365.92 373.70 1365.92 376.64 Z" fill="none" group-id="1,14" node-id="558" stroke="#000000" stroke-linecap="butt" stroke-opacity="0.82" stroke-width="1" target-height="10.639984" target-width="10.160034" target-x="1355.76" target-y="371.32"></path><path d="M 1361.51 637.27 C 1361.51 639.66 1359.54 641.59 1357.10 641.59 C 1354.66 641.59 1352.69 639.66 1352.69 637.27 C 1352.69 634.88 1354.66 632.95 1357.10 632.95 C 1359.54 632.95 1361.51 634.88 1361.51 637.27 Z" fill="none" group-id="1,14" node-id="560" stroke="#000000" stroke-linecap="butt" stroke-opacity="0.82" stroke-width="1" target-height="8.640015" target-width="8.820068" target-x="1352.69" target-y="632.95"></path><path d="M 202.63 604.90 C 202.63 608.88 199.77 612.10 196.24 612.10 C 192.71 612.10 189.85 608.88 189.85 604.90 C 189.85 600.92 192.71 597.70 196.24 597.70 C 199.77 597.70 202.63 600.92 202.63 604.90 Z" fill="#05cdcd" fill-opacity="0.82" fill-rule="nonzero" group-id="1,14" node-id="562" stroke="none" target-height="14.399963" target-width="12.779999" target-x="189.85" target-y="597.7"></path><path d="M 1047.77 220.52 C 1047.77 224.50 1044.91 227.72 1041.38 227.72 C 1037.85 227.72 1034.99 224.50 1034.99 220.52 C 1034.99 216.54 1037.85 213.32 1041.38 213.32 C 1044.91 213.32 1047.77 216.54 1047.77 220.52 Z" fill="#05cdcd" fill-opacity="0.82" fill-rule="nonzero" group-id="1,14" node-id="564" stroke="none" target-height="14.399994" target-width="12.780029" target-x="1034.99" target-y="213.32"></path><path d="M 648.18 812.68 C 648.18 814.83 646.56 816.57 644.57 816.57 C 642.58 816.57 640.96 814.83 640.96 812.68 C 640.96 810.53 642.58 808.79 644.57 808.79 C 646.56 808.79 648.18 810.53 648.18 812.68 Z" fill="none" group-id="1,14" node-id="566" stroke="#000000" stroke-linecap="butt" stroke-opacity="0.82" stroke-width="1" target-height="7.7800293" target-width="7.2199707" target-x="640.96" target-y="808.79"></path><path d="M 375.27 974.96 C 375.27 977.39 373.35 979.36 370.98 979.36 C 368.61 979.36 366.69 977.39 366.69 974.96 C 366.69 972.53 368.61 970.56 370.98 970.56 C 373.35 970.56 375.27 972.53 375.27 974.96 Z" fill="none" group-id="1,14" node-id="568" stroke="#000000" stroke-linecap="butt" stroke-opacity="0.82" stroke-width="1" target-height="8.799988" target-width="8.579987" target-x="366.69" target-y="970.56"></path><path d="M 556.29 951.72 C 556.29 954.15 554.37 956.12 552.00 956.12 C 549.63 956.12 547.71 954.15 547.71 951.72 C 547.71 949.29 549.63 947.32 552.00 947.32 C 554.37 947.32 556.29 949.29 556.29 951.72 Z" fill="none" group-id="1,14" node-id="570" stroke="#000000" stroke-linecap="butt" stroke-opacity="0.82" stroke-width="1" target-height="8.799988" target-width="8.579956" target-x="547.71" target-y="947.32"></path><path d="M 1404.61 764.13 C 1404.61 766.28 1402.99 768.02 1401.00 768.02 C 1399.01 768.02 1397.39 766.28 1397.39 764.13 C 1397.39 761.98 1399.01 760.24 1401.00 760.24 C 1402.99 760.24 1404.61 761.98 1404.61 764.13 Z" fill="none" group-id="1,14" node-id="572" stroke="#000000" stroke-linecap="butt" stroke-opacity="0.82" stroke-width="1" target-height="7.7800293" target-width="7.2199707" target-x="1397.39" target-y="760.24"></path><path d="M 1340.72 746.95 C 1340.72 749.38 1338.80 751.35 1336.43 751.35 C 1334.06 751.35 1332.14 749.38 1332.14 746.95 C 1332.14 744.52 1334.06 742.55 1336.43 742.55 C 1338.80 742.55 1340.72 744.52 1340.72 746.95 Z" fill="none" group-id="1,14" node-id="574" stroke="#000000" stroke-linecap="butt" stroke-opacity="0.82" stroke-width="1" target-height="8.799988" target-width="8.579956" target-x="1332.14" target-y="742.55"></path><path d="M 1380.11 906.97 C 1380.11 909.40 1378.19 911.37 1375.82 911.37 C 1373.45 911.37 1371.53 909.40 1371.53 906.97 C 1371.53 904.54 1373.45 902.57 1375.82 902.57 C 1378.19 902.57 1380.11 904.54 1380.11 906.97 Z" fill="none" group-id="1,14" node-id="576" stroke="#000000" stroke-linecap="butt" stroke-opacity="0.82" stroke-width="1" target-height="8.799988" target-width="8.579956" target-x="1371.53" target-y="902.57"></path><path d="M 233.99 818.97 C 233.99 821.73 231.87 823.96 229.25 823.96 C 226.63 823.96 224.51 821.73 224.51 818.97 C 224.51 816.21 226.63 813.98 229.25 813.98 C 231.87 813.98 233.99 816.21 233.99 818.97 Z" fill="none" group-id="1,14" node-id="578" stroke="#000000" stroke-linecap="butt" stroke-opacity="0.82" stroke-width="1" target-height="9.9800415" target-width="9.480011" target-x="224.51" target-y="813.98"></path><path d="M 551.28 240.27 C 551.28 245.05 547.34 248.92 542.47 248.92 C 537.60 248.92 533.66 245.05 533.66 240.27 C 533.66 235.49 537.60 231.62 542.47 231.62 C 547.34 231.62 551.28 235.49 551.28 240.27 Z" fill="none" group-id="1,14" node-id="580" stroke="#000000" stroke-linecap="butt" stroke-opacity="0.82" stroke-width="1" target-height="17.300003" target-width="17.620056" target-x="533.66" target-y="231.62"></path><path d="M 210.39 304.09 C 210.39 304.09 209.16 302.30 207.26 298.98" fill="none" group-id="1,15,30" node-id="587" stroke="#c1d7ef" stroke-linecap="butt" stroke-width="1" target-height="5.1099854" target-width="3.130005" target-x="207.26" target-y="298.98"></path><path d="M 201.64 288.22 C 186.55 256.47 163.42 182.44 231.95 115.68" fill="none" group-id="1,15,30" node-id="589" stroke="#c1d7ef" stroke-dasharray="12.143 12.143" stroke-linecap="butt" stroke-width="1" target-height="172.54001" target-width="68.53" target-x="163.42" target-y="115.68"></path><path d="M 236.37 111.50 C 237.82 110.17 239.32 108.83 240.85 107.51" fill="none" group-id="1,15,30" node-id="591" stroke="#c1d7ef" stroke-linecap="butt" stroke-width="1" target-height="3.9899979" target-width="4.480011" target-x="236.37" target-y="107.51"></path><path d="M 732.09 463.98 L 747.23 454.04 C 748.37 453.29 749.04 452.01 749.01 450.64 C 748.83 443.01 748.58 417.99 752.85 417.99 C 756.94 417.99 762.70 433.19 764.71 438.87 C 765.17 440.16 766.33 441.05 767.69 441.14 L 781.89 442.15 C 783.78 442.28 785.40 443.57 785.96 445.39 C 788.05 452.19 792.09 469.11 785.25 481.65 C 784.41 483.19 783.15 484.47 781.61 485.31 L 777.44 487.62 C 775.75 488.55 773.86 489.06 771.94 489.11 L 744.86 489.70 C 743.53 489.73 742.25 490.27 741.30 491.21 L 730.83 501.59 L 732.09 463.98 Z" fill="#ffffff" fill-rule="nonzero" group-id="1,16,31" node-id="598" stroke="#020202" stroke-linecap="butt" stroke-width="1" target-height="83.600006" target-width="61.26001" target-x="730.83" target-y="417.99"></path><path d="M 757.57 451.10 C 756.41 452.56 755.72 454.38 755.63 456.25 C 755.60 456.84 755.63 457.45 755.87 457.98 C 756.21 458.75 756.83 459.53 757.65 459.69 C 761.84 460.54 764.96 460.77 770.50 460.28 C 774.88 459.89 779.63 458.50 783.67 456.34 C 785.10 455.58 786.83 454.39 788.12 453.47" fill="none" group-id="1,16,31" node-id="600" stroke="#000000" stroke-linecap="butt" stroke-width="1" target-height="9.669983" target-width="32.52002" target-x="755.6" target-y="451.1"></path><path d="M 758.40 459.77 C 756.74 460.85 754.52 463.89 754.59 465.88 C 754.68 468.26 756.96 469.93 759.18 470.76 C 766.37 473.42 774.35 470.96 781.47 468.13 C 784.30 467.00 787.89 465.85 789.19 463.09" fill="none" group-id="1,16,31" node-id="602" stroke="#000000" stroke-linecap="butt" stroke-width="1" target-height="13.650024" target-width="34.669983" target-x="754.52" target-y="459.77"></path><path d="M 761.60 471.51 C 759.72 471.89 758.73 474.62 759.07 476.52 C 759.41 478.42 760.96 479.93 762.73 480.67 C 764.50 481.41 766.48 481.48 768.39 481.37 C 775.35 480.98 782.72 478.56 788.15 474.16" fill="none" group-id="1,16,31" node-id="604" stroke="#000000" stroke-linecap="butt" stroke-width="1" target-height="9.970001" target-width="29.420044" target-x="758.73" target-y="471.51"></path><path d="M 768.40 481.47 C 767.02 481.72 766.18 483.20 766.20 484.61 C 766.22 486.29 768.12 487.20 769.72 487.72 C 771.33 488.24 772.94 488.97 774.61 488.70" fill="none" group-id="1,16,31" node-id="606" stroke="#000000" stroke-linecap="butt" stroke-width="1" target-height="7.5" target-width="8.429993" target-x="766.18" target-y="481.47"></path><path d="M 757.46 451.11 C 758.13 450.62 766.26 448.78 770.84 448.39 C 771.54 448.33 772.42 448.12 772.51 447.42 C 772.58 446.93 772.18 446.51 771.79 446.20 C 769.68 444.50 768.06 443.31 766.65 440.98" fill="none" group-id="1,16,31" node-id="608" stroke="#000000" stroke-linecap="butt" stroke-width="1" target-height="10.129974" target-width="15.119995" target-x="757.46" target-y="440.98"></path><path d="M 448.38 1089.55 L 447.66 1137.78 L 534.58 1139.60 C 534.58 1139.60 543.81 1131.51 509.90 1118.63 C 509.90 1118.63 493.74 1115.84 488.94 1094.60 L 485.33 1088.51 L 450.90 1086.10 L 448.38 1089.55 Z" fill="#0c0c4f" fill-rule="nonzero" group-id="1,16" node-id="611" stroke="#0c0c4f" stroke-linecap="butt" stroke-width="1" target-height="53.5" target-width="96.149994" target-x="447.66" target-y="1086.1"></path><path d="M 562.90 1088.98 L 563.15 1138.99 L 649.70 1139.24 C 649.70 1139.24 659.13 1129.04 624.98 1116.84 C 624.98 1116.84 608.77 1114.37 603.55 1093.23 L 599.83 1087.22 L 565.36 1085.50 L 562.90 1088.98 Z" fill="#0c0c4f" fill-rule="nonzero" group-id="1,16" node-id="613" stroke="#0c0c4f" stroke-linecap="butt" stroke-width="1" target-height="53.73999" target-width="96.22998" target-x="562.9" target-y="1085.5"></path><path d="M 595.89 614.34 L 624.20 830.59 L 607.03 1089.21 C 607.03 1089.21 583.75 1101.94 560.89 1089.21 C 560.89 1089.21 564.11 1057.43 556.60 1058.53 C 549.09 1059.63 558.75 1043.19 558.75 1038.80 C 558.75 1034.41 543.73 839.35 543.73 839.35 L 534.07 796.61 L 527.63 614.70 C 527.63 614.71 591.19 604.12 595.89 614.34 Z" fill="#ffffff" fill-rule="nonzero" group-id="1,16" node-id="615" stroke="#000000" stroke-linecap="butt" stroke-width="1" target-height="497.81995" target-width="96.57001" target-x="527.63" target-y="604.12"></path><path d="M 457.01 615.52 C 457.01 615.52 447.76 1048.60 447.76 1055.26 C 447.76 1061.92 456.18 1058.59 454.08 1063.03 C 451.97 1067.47 435.13 1075.24 443.55 1077.45 C 451.97 1079.66 447.76 1079.67 447.76 1079.67 L 447.76 1088.55 C 447.76 1088.55 475.13 1100.76 489.87 1089.66 L 577.25 615.87 L 457.01 615.52 Z" fill="#ffffff" fill-rule="nonzero" group-id="1,16" node-id="617" stroke="#000000" stroke-linecap="butt" stroke-width="1" target-height="485.24" target-width="142.12" target-x="435.13" target-y="615.52"></path><path d="M 543.73 839.36 C 543.73 839.36 542.80 829.90 558.58 812.64" fill="none" group-id="1,16" node-id="619" stroke="#050505" stroke-linecap="butt" stroke-width="1" target-height="26.71997" target-width="15.780029" target-x="542.8" target-y="812.64"></path><path d="M 560.31 386.05 L 570.54 386.69 C 571.60 386.76 572.57 387.32 573.16 388.21 L 638.09 491.47 L 730.64 460.31 C 731.37 460.12 732.10 460.61 732.19 461.36 L 737.45 502.75 C 737.58 503.81 737.03 504.84 736.06 505.29 L 621.07 550.39 L 585.23 507.26 L 607.44 627.20 C 607.44 628.77 606.29 630.11 604.75 630.31 C 581.52 633.45 562.90 632.54 550.01 631.07 C 522.98 628.00 508.51 621.07 480.98 622.22 C 467.88 622.77 456.93 624.93 449.10 626.94 C 449.10 626.94 447.38 625.90 445.86 624.33 C 432.39 610.36 456.53 549.44 448.59 490.45 C 445.97 470.98 439.18 446.73 451.84 421.73 C 454.19 417.09 456.64 413.56 458.28 411.36 L 518.10 379.81 L 560.31 386.05 Z" fill="#05d3ab" fill-rule="nonzero" group-id="1,16" node-id="621" stroke="none" target-height="253.64001" target-width="305.19" target-x="432.39" target-y="379.81"></path><path d="M 576.00 305.28 C 577.74 306.08 596.76 372.16 560.27 370.77 L 559.64 400.73 C 559.64 400.73 528.81 419.54 518.12 379.83 L 518.75 338.03 C 518.75 338.02 523.16 280.89 576.00 305.28 Z" fill="#ffffff" fill-rule="nonzero" group-id="1,16" node-id="623" stroke="#020202" stroke-linecap="butt" stroke-width="1" target-height="138.65" target-width="78.640015" target-x="518.12" target-y="280.89"></path><path d="M 592.99 289.95 C 592.99 289.95 580.41 310.15 565.31 310.85 C 550.21 311.55 547.07 311.55 547.07 317.82 C 547.07 321.59 546.61 324.36 546.25 325.96 C 546.12 326.52 545.37 326.62 545.11 326.11 C 543.17 322.30 537.46 312.74 531.34 317.82 C 523.79 324.09 533.23 333.15 533.23 333.15 C 533.23 333.15 530.08 358.93 520.65 356.14 C 511.21 353.35 497.37 302.49 503.03 289.95 C 508.69 277.41 539.52 269.05 545.18 264.17 C 550.84 259.29 556.50 253.72 559.02 259.29 C 561.54 264.86 566.57 259.99 574.75 263.47 C 582.93 266.95 578.52 280.19 584.82 280.19 C 591.10 280.20 593.62 286.47 592.99 289.95 Z" fill="#000000" fill-rule="nonzero" group-id="1,16" node-id="625" stroke="#000000" stroke-linecap="butt" stroke-width="1" target-height="105.20999" target-width="96.25" target-x="497.37" target-y="253.72"></path><path d="M 562.34 415.56 L 766.72 415.56 L 766.72 572.14 L 562.34 572.14 Z" fill="#e5ad70" fill-rule="nonzero" group-id="1,16" node-id="627" stroke="#000000" stroke-linecap="butt" stroke-width="1" target-height="156.58002" target-width="204.37994" target-x="562.34" target-y="415.56"></path><path d="M 562.34 415.56 L 615.08 415.56 L 615.08 571.95 L 562.34 571.95 Z" fill="#a36629" fill-rule="nonzero" group-id="1,16" node-id="629" stroke="#000000" stroke-linecap="butt" stroke-width="1" target-height="156.39001" target-width="52.73999" target-x="562.34" target-y="415.56"></path><path d="M 570.32 569.00 L 595.68 571.75 C 595.68 571.75 619.27 545.79 623.93 547.82 C 628.59 549.85 617.83 574.33 617.83 574.33 C 617.83 574.33 635.44 581.43 638.20 578.58 C 640.96 575.73 655.76 562.51 655.47 568.22 C 655.26 572.27 651.12 582.16 648.74 587.55 C 647.70 589.90 645.92 591.82 643.67 593.03 L 620.35 605.57 C 618.77 606.42 616.92 606.59 615.21 606.05 L 598.68 600.80 L 557.41 605.90 L 570.32 569.00 Z" fill="#ffffff" fill-rule="nonzero" group-id="1,16" node-id="631" stroke="#020202" stroke-linecap="butt" stroke-width="1" target-height="60.80005" target-width="98.35004" target-x="557.41" target-y="545.79"></path><path d="M 496.47 446.87 L 496.47 446.87 C 494.90 446.43 490.37 517.93 489.19 537.04 C 489.02 539.76 490.75 542.22 493.36 542.97 L 570.24 565.14 C 571.07 565.38 571.55 566.24 571.33 567.07 L 560.94 606.39 C 560.70 607.31 559.80 607.89 558.87 607.73 L 435.77 586.87 L 448.58 452.28 L 449.34 452.19" fill="#05d3ab" fill-rule="nonzero" group-id="1,16" node-id="633" stroke="#050505" stroke-linecap="butt" stroke-width="1" target-height="161.46002" target-width="135.78" target-x="435.77" target-y="446.43"></path><path d="M 449.86 619.36 C 462.74 614.88 476.45 611.47 490.17 612.10 C 498.66 612.49 506.86 615.17 515.12 616.99 C 533.20 620.97 551.52 624.33 569.94 626.22 C 575.94 626.84 582.00 627.32 588.04 627.21 C 591.76 627.14 596.09 627.10 599.51 625.38" fill="none" group-id="1,16" node-id="635" stroke="#070707" stroke-linecap="butt" stroke-width="1" target-height="15.850037" target-width="149.65002" target-x="449.86" target-y="611.47"></path><path d="M 476.75 534.23 C 476.75 534.23 481.81 533.97 490.59 541.78" fill="none" group-id="1,16" node-id="637" stroke="#050505" stroke-linecap="butt" stroke-width="1" target-height="7.8100586" target-width="13.839996" target-x="476.75" target-y="533.97"></path><path d="M 533.16 322.73 C 533.16 322.73 533.44 326.38 537.06 328.90" fill="#000000" fill-rule="nonzero" group-id="1,16" node-id="639" stroke="#000000" stroke-linecap="butt" stroke-width="1" target-height="6.169983" target-width="3.9000244" target-x="533.16" target-y="322.73"></path><path d="M 1163.52 527.05 C 1161.58 537.08 1164.59 546.95 1168.35 547.69 C 1172.11 548.43 1176.40 541.46 1178.21 531.95 C 1180.18 521.56 1177.60 510.98 1173.84 510.24 C 1170.08 509.50 1165.46 517.03 1163.52 527.05 Z" fill="#000000" fill-rule="nonzero" group-id="1,17" node-id="643" stroke="#020202" stroke-linecap="butt" stroke-width="1" target-height="38.929993" target-width="18.600098" target-x="1161.58" target-y="509.5"></path><path d="M 1172.35 547.50 L 1151.70 539.06 C 1150.13 538.42 1148.36 538.53 1146.89 539.36 C 1143.09 541.51 1135.81 545.45 1134.59 544.76 L 1109.17 519.70 C 1109.17 519.70 1111.12 505.34 1114.10 499.66 C 1116.54 494.99 1118.38 493.55 1124.65 493.57 C 1126.05 493.58 1127.46 493.95 1128.76 494.66 L 1155.63 509.41 C 1156.36 509.81 1157.13 510.06 1157.92 510.16 C 1162.49 510.70 1178.77 512.71 1179.12 514.10 C 1179.51 515.71 1179.25 541.18 1172.35 547.50 Z" fill="#ffffff" fill-rule="nonzero" group-id="1,17" node-id="645" stroke="#020202" stroke-linecap="butt" stroke-width="1" target-height="53.950012" target-width="70.339966" target-x="1109.17" target-y="493.55"></path><path d="M 1270.30 330.76 C 1271.93 341.37 1274.83 354.08 1280.08 367.89 C 1288.65 390.46 1300.21 407.37 1309.46 418.74 C 1310.16 420.06 1310.86 421.38 1311.56 422.71 C 1308.61 423.30 1307.09 423.43 1306.98 423.10 C 1306.68 422.17 1317.50 417.60 1339.46 409.41 L 1308.36 300.20 C 1308.36 300.20 1265.10 314.78 1270.30 330.76 Z" fill="#050133" fill-rule="nonzero" group-id="1,17" node-id="647" stroke="none" target-height="123.22998" target-width="74.359985" target-x="1265.1" target-y="300.2"></path><path d="M 1440.66 1113.25 L 1440.11 1140.32 L 1509.20 1140.69 C 1509.20 1140.69 1515.69 1131.78 1509.79 1130.37 C 1503.90 1128.96 1479.46 1121.95 1475.79 1113.49 L 1440.66 1113.25 Z" fill="#070707" fill-rule="nonzero" group-id="1,17" node-id="649" stroke="#000000" stroke-linecap="butt" stroke-width="1" target-height="27.439941" target-width="75.579956" target-x="1440.11" target-y="1113.25"></path><path d="M 1436.91 1080.24 L 1440.51 1113.68 L 1475.64 1113.50 L 1467.51 1074.29 Z" fill="#ffffff" fill-rule="nonzero" group-id="1,17" node-id="651" stroke="#020202" stroke-linecap="butt" stroke-width="1" target-height="39.390015" target-width="38.72998" target-x="1436.91" target-y="1074.29"></path><path d="M 1283.69 1114.24 L 1283.80 1077.65 L 1317.85 1077.74 L 1317.74 1114.33 Z" fill="#ffffff" fill-rule="nonzero" group-id="1,17,32" node-id="655" stroke="#020202" stroke-linecap="butt" stroke-width="1.0000039" target-height="36.68567" target-width="34.152954" target-x="1283.6937" target-y="1077.6465"></path><path d="M 1278.63 572.04 C 1277.67 578.75 1276.34 588.53 1275.01 600.35 C 1267.26 669.18 1269.51 717.25 1270.99 775.92 C 1271.34 789.88 1269.43 716.53 1272.68 933.10 C 1273.60 994.73 1274.43 1045.32 1274.99 1079.30 C 1275.01 1080.47 1275.70 1081.50 1276.74 1081.90 C 1280.77 1083.44 1285.96 1085.53 1292.19 1085.67 C 1301.91 1085.89 1321.10 1086.80 1323.23 1079.99 C 1323.23 1079.99 1333.34 1060.49 1336.71 1049.15 C 1339.29 1040.46 1323.31 1051.80 1326.01 1043.75 C 1328.71 1035.70 1342.15 1016.94 1334.14 1010.21 C 1326.12 1003.47 1324.77 1008.84 1324.80 999.44 C 1324.83 990.04 1328.38 671.86 1336.41 675.91 C 1344.43 679.96 1408.36 997.97 1407.81 1007.73 C 1407.18 1018.79 1409.81 1027.60 1411.78 1026.54 C 1425.10 1019.35 1418.46 1031.93 1417.09 1042.67 C 1415.89 1052.06 1418.81 1056.33 1424.94 1054.57 C 1426.51 1054.12 1428.13 1055.09 1428.47 1056.68 L 1434.39 1084.33 C 1442.97 1085.66 1450.18 1085.99 1455.54 1085.99 C 1467.75 1085.99 1465.52 1085.68 1471.16 1085.03 C 1476.95 1084.36 1478.58 1083.19 1477.56 1077.31 C 1476.39 1070.55 1475.17 1063.81 1473.97 1057.05 C 1471.68 1044.10 1469.39 1031.15 1467.11 1018.20 C 1462.92 994.46 1458.75 970.72 1454.59 946.98 C 1447.70 907.67 1440.86 868.35 1434.10 829.02 C 1429.06 799.67 1424.06 770.32 1419.16 740.94 C 1415.75 720.45 1412.38 699.95 1409.15 679.44 C 1407.15 666.71 1405.17 653.97 1403.44 641.20 C 1402.62 635.15 1401.66 629.04 1401.40 622.93 C 1401.39 622.62 1401.38 622.31 1401.37 622.00 C 1401.35 620.17 1401.47 608.68 1398.48 593.69 C 1396.37 583.10 1393.51 574.82 1391.67 570.00 C 1372.47 569.99 1352.94 570.15 1333.09 570.53 C 1314.63 570.87 1296.49 571.38 1278.63 572.04 Z" fill="#4f47fd" fill-rule="nonzero" group-id="1,17" node-id="658" stroke="none" target-height="516.81006" target-width="211.31995" target-x="1267.26" target-y="569.99"></path><path d="M 1301.34 403.71 C 1301.34 403.71 1277.05 401.90 1274.26 407.49 C 1271.47 413.08 1224.04 520.66 1219.19 520.65 C 1214.34 520.64 1174.86 509.33 1174.86 509.33 C 1174.86 509.33 1183.40 538.34 1167.16 548.26 C 1167.16 548.26 1229.43 562.39 1240.52 560.32 C 1251.01 558.37 1277.47 512.31 1280.50 508.75 C 1280.57 508.67 1277.56 540.95 1277.53 541.05 L 1271.84 560.35 C 1271.79 560.54 1271.84 560.75 1271.98 560.90 L 1276.94 565.93 C 1277.13 566.13 1277.15 566.44 1276.98 566.66 L 1272.46 572.49 C 1272.43 572.53 1272.43 572.58 1272.47 572.62 L 1275.17 575.36 C 1275.17 575.36 1350.01 584.66 1390.94 572.19 L 1396.33 566.78 C 1396.74 566.37 1396.60 565.67 1396.06 565.45 L 1390.69 563.27 C 1390.48 563.18 1390.41 562.92 1390.56 562.74 L 1396.41 555.70 C 1396.93 555.07 1397.20 554.27 1397.16 553.45 C 1396.71 544.32 1396.20 488.55 1410.71 442.84 L 1418.56 409.36 L 1364.41 390.95 L 1356.07 397.22 L 1311.69 409.00 L 1301.34 403.71 Z" fill="#e53076" fill-rule="nonzero" group-id="1,17" node-id="660" stroke="none" target-height="193.70996" target-width="251.40002" target-x="1167.16" target-y="390.95"></path><path d="M 1318.09 1113.49 L 1319.13 1140.55 L 1249.26 1140.35 C 1249.26 1140.35 1243.42 1133.41 1249.28 1131.89 C 1255.14 1130.37 1279.45 1122.92 1282.97 1114.38 L 1318.09 1113.49 Z" fill="#070707" fill-rule="nonzero" group-id="1,17" node-id="662" stroke="#000000" stroke-linecap="butt" stroke-width="1" target-height="27.060059" target-width="75.70996" target-x="1243.42" target-y="1113.49"></path><path d="M 1272.77 320.63 C 1272.77 320.63 1280.09 370.27 1292.70 375.23 C 1305.31 380.19 1314.40 372.54 1316.13 376.74 C 1317.86 380.94 1322.22 395.22 1322.22 395.22 L 1301.46 403.64 C 1301.46 403.64 1303.99 424.47 1308.21 426.97 C 1312.42 429.46 1337.55 433.17 1347.50 426.36 C 1357.45 419.55 1361.00 410.40 1361.00 410.40 L 1349.80 394.18 L 1350.52 320.06 L 1306.69 292.60 L 1272.77 320.63 Z" fill="#ffffff" fill-rule="nonzero" group-id="1,17" node-id="664" stroke="#020202" stroke-linecap="butt" stroke-width="1" target-height="140.57" target-width="88.22998" target-x="1272.77" target-y="292.6"></path><path d="M 1333.96 334.16 C 1333.96 334.16 1334.56 343.31 1328.37 346.25" fill="none" group-id="1,17" node-id="666" stroke="#03082b" stroke-linecap="butt" stroke-width="1" target-height="12.089996" target-width="6.1900635" target-x="1328.37" target-y="334.16"></path><path d="M 1287.33 433.50 C 1283.95 439.73 1280.65 446.00 1277.40 452.30 C 1274.96 457.03 1272.49 461.75 1270.14 466.52 C 1268.09 470.70 1264.78 475.68 1264.67 480.48 C 1264.60 483.42 1266.82 486.30 1268.20 488.78 C 1269.85 491.74 1271.50 494.69 1272.98 497.74 C 1276.23 504.45 1278.99 511.91 1278.47 519.51" fill="none" group-id="1,17" node-id="668" stroke="#ffffff" stroke-linecap="butt" stroke-width="1" target-height="86.01001" target-width="22.72998" target-x="1264.6" target-y="433.5"></path><path d="M 1276.95 565.93 C 1276.95 565.93 1339.99 576.68 1388.61 563.89" fill="none" group-id="1,17" node-id="670" stroke="#ffffff" stroke-linecap="butt" stroke-width="1" target-height="12.789978" target-width="111.660034" target-x="1276.95" target-y="563.89"></path><path d="M 1340.22 598.13 L 1336.31 669.04" fill="none" group-id="1,17" node-id="672" stroke="#000000" stroke-linecap="butt" stroke-width="1" target-height="70.90997" target-width="3.909912" target-x="1336.31" target-y="598.13"></path><path d="M 1328.80 610.35 L 1333.71 666.61" fill="none" group-id="1,17" node-id="674" stroke="#000000" stroke-linecap="butt" stroke-width="1" target-height="56.26001" target-width="4.909912" target-x="1328.8" target-y="610.35"></path><path d="M 1293.25 579.20 C 1293.25 579.20 1290.92 608.17 1275.70 613.81" fill="none" group-id="1,17" node-id="676" stroke="#000000" stroke-linecap="butt" stroke-width="1" target-height="34.609985" target-width="17.550049" target-x="1275.7" target-y="579.2"></path><path d="M 1357.38 580.20 C 1357.38 580.20 1366.17 607.52 1382.85 611.72" fill="none" group-id="1,17" node-id="678" stroke="#000000" stroke-linecap="butt" stroke-width="1" target-height="31.519958" target-width="25.46997" target-x="1357.38" target-y="580.2"></path><path d="M 1218.58 521.52 C 1218.58 521.52 1222.15 521.47 1227.12 527.62" fill="none" group-id="1,17" node-id="680" stroke="#ffffff" stroke-linecap="butt" stroke-width="1" target-height="6.1500244" target-width="8.540039" target-x="1218.58" target-y="521.47"></path><path d="M 1163.27 515.39 L 1147.49 543.11 C 1147.06 543.86 1146.13 544.15 1145.38 543.77 L 1094.25 517.93 C 1093.43 517.52 1093.15 516.48 1093.64 515.67 L 1109.48 489.65 C 1109.91 488.94 1110.80 488.66 1111.53 489.01 L 1162.60 513.15 C 1163.42 513.55 1163.73 514.57 1163.27 515.39 Z" fill="#000000" fill-rule="nonzero" group-id="1,17,33" node-id="684" stroke="#050505" stroke-linecap="butt" stroke-width="1" target-height="55.49002" target-width="70.579956" target-x="1093.15" target-y="488.66"></path><path d="M 1159.12 515.15 L 1144.79 540.10 C 1144.40 540.78 1143.59 541.06 1142.94 540.74 L 1099.11 518.98 C 1098.41 518.63 1098.19 517.72 1098.63 516.99 L 1112.98 493.54 C 1113.37 492.90 1114.15 492.64 1114.78 492.93 L 1158.59 513.18 C 1159.30 513.51 1159.54 514.42 1159.12 515.15 Z" fill="#ffffff" fill-rule="nonzero" group-id="1,17,33" node-id="686" stroke="#050505" stroke-linecap="butt" stroke-width="1" target-height="48.419983" target-width="61.350098" target-x="1098.19" target-y="492.64"></path><path d="M 1139.39 497.77 C 1137.73 496.42 1135.57 496.02 1133.54 496.68 C 1129.38 498.03 1122.56 500.33 1121.47 501.31 C 1119.87 502.73 1122.99 504.23 1127.84 504.91 C 1131.82 505.47 1143.75 506.05 1148.57 506.54 C 1149.09 506.59 1149.36 505.87 1148.95 505.53 L 1139.39 497.77 Z" fill="#ffffff" fill-rule="nonzero" group-id="1,17" node-id="689" stroke="#020202" stroke-linecap="butt" stroke-width="1" target-height="10.570007" target-width="29.48999" target-x="1119.87" target-y="496.02"></path><path d="M 1111.37 524.11 L 1113.78 532.20 C 1114.14 533.42 1114.98 534.45 1116.05 535.00 L 1133.43 543.93 C 1134.48 544.47 1135.65 544.55 1136.67 544.14 C 1139.78 542.90 1146.27 540.21 1145.90 539.39 C 1145.41 538.32 1138.60 527.85 1138.24 527.05 C 1137.94 526.39 1126.81 520.67 1122.84 518.64 C 1121.95 518.19 1120.97 518.15 1120.12 518.54 L 1112.11 522.22 C 1111.45 522.52 1111.14 523.32 1111.37 524.11 Z" fill="#ffffff" fill-rule="nonzero" group-id="1,17,34" node-id="693" stroke="#020202" stroke-linecap="butt" stroke-width="1" target-height="26.399963" target-width="35.130005" target-x="1111.14" target-y="518.15"></path><path d="M 1123.37 522.92 C 1123.37 522.92 1118.66 526.21 1118.19 528.09 C 1117.72 529.97 1118.19 535.37 1118.19 535.37" fill="#ffffff" fill-rule="nonzero" group-id="1,17,34" node-id="695" stroke="#020202" stroke-linecap="butt" stroke-width="1" target-height="12.450012" target-width="5.6500244" target-x="1117.72" target-y="522.92"></path><path d="M 1129.26 527.62 C 1129.26 527.62 1124.78 530.91 1124.55 532.08 C 1124.31 533.25 1125.02 539.36 1125.02 539.36" fill="#ffffff" fill-rule="nonzero" group-id="1,17,34" node-id="697" stroke="#020202" stroke-linecap="butt" stroke-width="1" target-height="11.73999" target-width="4.949951" target-x="1124.31" target-y="527.62"></path><path d="M 1136.10 532.56 C 1136.10 532.56 1131.86 533.73 1131.86 535.14 C 1131.86 536.55 1131.86 542.66 1131.86 542.66" fill="#ffffff" fill-rule="nonzero" group-id="1,17,34" node-id="699" stroke="#020202" stroke-linecap="butt" stroke-width="1" target-height="10.099976" target-width="4.23999" target-x="1131.86" target-y="532.56"></path><path d="M 1374.81 595.00 C 1374.68 595.86 1373.48 609.28 1395.79 620.46 C 1395.90 620.51 1396.02 620.42 1395.99 620.30 C 1395.22 617.92 1389.69 602.13 1375.32 594.62 C 1375.30 594.61 1374.82 594.98 1374.81 595.00 Z" fill="#000000" fill-rule="nonzero" group-id="1,17" node-id="702" stroke="#020202" stroke-linecap="butt" stroke-width="1" target-height="25.900024" target-width="22.54004" target-x="1373.48" target-y="594.61"></path><path d="M 1078.78 962.95 L 1103.37 803.17 L 1263.15 827.76 L 1238.56 987.54 Z" fill="#d9bf60" fill-rule="nonzero" group-id="1,17,35,37" node-id="708" stroke="none" target-height="184.37329" target-width="184.37329" target-x="1078.7798" target-y="803.1675"></path><path d="M 996.24 948.33 L 1016.50 819.81 L 1166.20 843.41 L 1145.94 971.92 Z" fill="#14338e" fill-rule="nonzero" group-id="1,17,35,38" node-id="713" stroke="none" target-height="152.10919" target-width="169.9577" target-x="996.2402" target-y="819.8124"></path><path d="M 1370.55 636.77 C 1370.55 644.93 1363.92 651.55 1355.75 651.55 C 1347.58 651.55 1340.95 644.93 1340.95 636.77 C 1340.95 628.61 1347.58 621.99 1355.75 621.99 C 1363.92 621.99 1370.55 628.61 1370.55 636.77 Z" fill="none" group-id="1,17,35,39" node-id="718" stroke="#000000" stroke-linecap="butt" stroke-width="2" target-height="29.559998" target-width="29.600098" target-x="1340.95" target-y="621.99"></path><path d="M 1303.02 707.62 L 1259.73 973.56 C 1258.43 981.53 1250.62 987.01 1242.25 985.82 L 937.10 942.31 C 922.04 940.16 910.37 928.63 908.66 914.21 L 887.01 731.53 C 885.50 718.78 895.96 707.62 909.42 707.62 L 1303.02 707.62 L 1303.02 707.62 Z" fill="none" group-id="1,17,35,39" node-id="720" stroke="#000000" stroke-linecap="butt" stroke-width="2" target-height="279.39" target-width="417.52002" target-x="885.5" target-y="707.62"></path><path d="M 1339.52 637.05 L 1325.16 637.54 C 1317.09 637.81 1310.46 643.68 1309.57 651.33 L 1303.01 707.63" fill="none" group-id="1,17,35,39" node-id="722" stroke="#000000" stroke-linecap="butt" stroke-width="2" target-height="70.58002" target-width="36.51001" target-x="1303.01" target-y="637.05"></path><path d="M 1047.45 981.21 L 1225.63 1008.69 C 1242.81 1011.34 1256.35 1024.08 1259.35 1040.42 L 1268.53 1090.45 L 969.36 1086.58" fill="none" group-id="1,17,35,39" node-id="724" stroke="#000000" stroke-linecap="butt" stroke-width="2" target-height="109.23993" target-width="299.17004" target-x="969.36" target-y="981.21"></path><path d="M 1150.89 1116.08 C 1150.89 1130.76 1162.43 1140.82 1176.44 1140.82 C 1190.44 1140.82 1201.60 1130.76 1201.60 1116.08 C 1201.60 1101.40 1190.25 1089.49 1176.25 1089.49 C 1162.24 1089.49 1150.89 1101.39 1150.89 1116.08 Z" fill="none" group-id="1,17,35,39" node-id="726" stroke="#000000" stroke-linecap="butt" stroke-width="2" target-height="51.329956" target-width="50.70996" target-x="1150.89" target-y="1089.49"></path><path d="M 987.61 1112.69 C 987.61 1126.57 999.21 1139.60 1012.93 1139.60 C 1026.65 1139.60 1037.30 1126.57 1037.30 1112.69 C 1037.30 1098.81 1026.18 1087.55 1012.45 1087.55 C 998.74 1087.56 987.61 1098.81 987.61 1112.69 Z" fill="none" group-id="1,17,35,39" node-id="728" stroke="#000000" stroke-linecap="butt" stroke-width="2" target-height="52.049927" target-width="49.690063" target-x="987.61" target-y="1087.55"></path><path d="M 1289.83 788.83 L 893.30 767.56" fill="none" group-id="1,17,35,39" node-id="730" stroke="#000000" stroke-linecap="butt" stroke-width="2" target-height="21.27002" target-width="396.52997" target-x="893.3" target-y="767.56"></path><path d="M 1277.66 861.34 L 898.37 822.67" fill="none" group-id="1,17,35,39" node-id="732" stroke="#000000" stroke-linecap="butt" stroke-width="2" target-height="38.670044" target-width="379.29004" target-x="898.37" target-y="822.67"></path><path d="M 1264.48 933.84 L 904.45 875.84" fill="none" group-id="1,17,35,39" node-id="734" stroke="#000000" stroke-linecap="butt" stroke-width="2" target-height="58" target-width="360.02997" target-x="904.45" target-y="875.84"></path><path d="M 1209.71 708.59 L 1183.35 977.35" fill="none" group-id="1,17,35,39" node-id="736" stroke="#000000" stroke-linecap="butt" stroke-width="2" target-height="268.75995" target-width="26.359985" target-x="1183.35" target-y="708.59"></path><path d="M 1091.06 709.56 L 1083.96 961.88" fill="none" group-id="1,17,35,39" node-id="738" stroke="#000000" stroke-linecap="butt" stroke-width="2" target-height="252.32" target-width="7.1000977" target-x="1083.96" target-y="709.56"></path><path d="M 979.50 708.59 L 982.54 946.41" fill="none" group-id="1,17,35,39" node-id="740" stroke="#000000" stroke-linecap="butt" stroke-width="2" target-height="237.81995" target-width="3.039978" target-x="979.5" target-y="708.59"></path><path d="M 1341.33 622.66 L 1342.23 621.81 C 1342.23 621.81 1339.94 620.42 1345.42 615.30 C 1349.83 611.18 1345.52 614.69 1348.35 612.23 C 1351.34 609.63 1373.59 598.43 1373.59 598.43 L 1379.94 594.60 L 1398.58 609.15 L 1380.21 623.69 L 1368.80 644.40 C 1368.11 645.65 1366.78 646.43 1365.29 646.48 C 1358.71 646.68 1342.19 645.02 1339.08 631.56 C 1338.73 630.05 1337.96 628.65 1338.75 627.38 L 1341.33 622.66 Z" fill="#ffffff" fill-rule="nonzero" group-id="1,17" node-id="744" stroke="#020202" stroke-linecap="butt" stroke-width="1" target-height="52.080017" target-width="60.619995" target-x="1337.96" target-y="594.6"></path><path d="M 1361.82 419.20 C 1361.82 419.20 1385.54 388.97 1394.17 393.23 C 1402.81 397.48 1474.38 531.52 1468.50 549.89 C 1462.61 568.25 1395.89 620.46 1395.89 620.46 C 1395.89 620.46 1386.34 600.12 1374.16 595.38 L 1418.12 551.12 C 1418.77 550.46 1418.92 549.47 1418.48 548.65 C 1411.50 535.59 1357.22 433.33 1361.82 419.20 Z" fill="#ff4c8b" fill-rule="nonzero" group-id="1,17" node-id="746" stroke="none" target-height="231.49002" target-width="117.160034" target-x="1357.22" target-y="388.97"></path><path d="M 1419.23 550.36 C 1419.23 550.36 1425.28 548.03 1431.19 551.31" fill="none" group-id="1,17" node-id="748" stroke="#ffffff" stroke-linecap="butt" stroke-width="1" target-height="3.2799683" target-width="11.959961" target-x="1419.23" target-y="548.03"></path><path d="M 1305.67 305.92 C 1305.85 304.49 1291.99 337.14 1272.43 335.46 L 1269.77 335.15 C 1269.44 335.11 1269.33 334.68 1269.61 334.50 C 1272.36 332.65 1281.17 326.52 1282.27 323.04 C 1283.58 318.91 1279.52 320.77 1275.01 324.01 C 1270.51 327.25 1268.73 330.01 1262.34 327.77 C 1255.95 325.53 1257.56 309.68 1262.90 300.31 C 1268.16 291.07 1292.09 274.93 1310.76 278.44 C 1310.78 278.44 1310.79 278.45 1310.81 278.45 L 1321.19 281.54 C 1321.23 281.55 1321.26 281.56 1321.29 281.56 C 1321.32 281.56 1321.34 281.56 1321.35 281.55 C 1334.01 278.90 1343.47 294.35 1348.59 303.10 C 1354.94 313.94 1362.35 324.72 1372.59 332.25 C 1382.38 339.45 1395.71 338.33 1405.72 346.00 C 1412.00 350.81 1416.50 357.77 1423.22 361.94 C 1424.22 362.56 1424.22 362.43 1428.10 364.41 C 1438.22 369.57 1443.28 372.15 1445.23 373.53 C 1457.19 381.93 1457.63 400.79 1457.69 403.39 C 1457.77 406.74 1457.88 415.91 1452.93 424.62 C 1441.94 443.96 1411.87 450.74 1390.65 443.04 C 1377.70 438.34 1369.24 428.67 1357.54 415.30 C 1354.76 412.12 1352.58 409.19 1350.92 405.35 C 1348.79 400.42 1348.94 394.80 1347.27 389.70 C 1345.20 383.39 1340.53 378.33 1336.91 372.76 C 1330.24 362.48 1331.92 355.68 1337.99 346.60 C 1340.63 342.65 1343.19 335.20 1340.21 330.64 C 1337.72 326.84 1332.28 327.43 1328.92 329.55 C 1323.92 332.70 1322.75 339.40 1323.39 344.96 C 1323.42 345.25 1323.13 345.46 1322.88 345.32 C 1319.39 343.42 1302.37 332.10 1305.67 305.92 Z" fill="#0d005f" fill-rule="nonzero" group-id="1,17" node-id="750" stroke="none" target-height="175.81" target-width="201.93005" target-x="1255.95" target-y="274.93"></path><path d="M 90.00 1138.43 L 1567.57 1140.96" fill="none" group-id="1" node-id="753" stroke="#000000" stroke-linecap="butt" stroke-width="1" target-height="2.5299072" target-width="1477.57" target-x="90" target-y="1138.43"></path></g></svg>